<?xml version="1.0" encoding="UTF-8" standalone="no"?>
<svg
   xmlns:dc="http://purl.org/dc/elements/1.1/"
   xmlns:cc="http://creativecommons.org/ns#"
   xmlns:rdf="http://www.w3.org/1999/02/22-rdf-syntax-ns#"
   xmlns:svg="http://www.w3.org/2000/svg"
   xmlns="http://www.w3.org/2000/svg"
   xmlns:sodipodi="http://sodipodi.sourceforge.net/DTD/sodipodi-0.dtd"
   xmlns:inkscape="http://www.inkscape.org/namespaces/inkscape"
   width="258.88831mm"
   height="131.79955mm"
   viewBox="0 0 258.88831 131.79955"
   version="1.1"
   id="svg8"
   inkscape:version="1.0.1 (3bc2e813f5, 2020-09-07)"
   sodipodi:docname="logo.svg">
  <defs
     id="defs2">
    <clipPath
       clipPathUnits="userSpaceOnUse"
       id="clipPath849">
      <path
         d="m 501.464,382.408 v 250.818 h 107.67 v -37.815 h -69.855 v -44.769 h 75.41 v -37.814 h -75.41 v -92.604 h 69.855 v -37.816 z"
         id="path847" />
    </clipPath>
    <linearGradient
       x1="0"
       y1="0"
       x2="1"
       y2="0"
       gradientUnits="userSpaceOnUse"
       gradientTransform="matrix(0,-239.28563,-239.28563,0,558.07678,659.77399)"
       spreadMethod="pad"
       id="linearGradient859">
      <stop
         style="stop-opacity:1;stop-color:#858383"
         offset="0"
         id="stop855" />
      <stop
         style="stop-opacity:1;stop-color:#231f20"
         offset="1"
         id="stop857" />
    </linearGradient>
    <clipPath
       clipPathUnits="userSpaceOnUse"
       id="clipPath869">
      <path
         d="M 642.532,618.856 C 630.796,607.168 624.93,593.026 624.93,576.435 v 0 -137.374 c 0,-16.41 5.821,-30.481 17.464,-42.215 v 0 c 11.641,-11.736 25.804,-17.601 42.491,-17.601 v 0 c 16.408,0 30.479,5.797 42.214,17.396 v 0 c 11.735,11.595 17.603,25.735 17.603,42.42 v 0 111.581 h -72.569 v -37.814 h 33.378 v -73.354 c 0,-6.05 -2.131,-11.185 -6.394,-15.401 v 0 c -4.262,-4.218 -9.42,-6.325 -15.47,-6.325 v 0 c -5.96,0 -11.048,2.107 -15.263,6.325 v 0 c -4.219,4.216 -6.326,9.351 -6.326,15.401 v 0 137.648 c 0,6.05 2.107,11.207 6.326,15.469 v 0 c 4.215,4.264 9.303,6.395 15.263,6.395 v 0 c 6.05,0 11.208,-2.131 15.47,-6.395 v 0 c 4.263,-4.262 6.394,-9.419 6.394,-15.469 v 0 -5.303 h 39.191 v 4.616 c 0,16.501 -5.799,30.617 -17.396,42.352 v 0 c -11.598,11.734 -25.738,17.602 -42.421,17.602 v 0 c -16.501,0 -30.62,-5.845 -42.353,-17.533"
         id="path867" />
    </clipPath>
    <linearGradient
       x1="0"
       y1="0"
       x2="1"
       y2="0"
       gradientUnits="userSpaceOnUse"
       gradientTransform="matrix(0,-239.28563,-239.28563,0,684.8161,659.77399)"
       spreadMethod="pad"
       id="linearGradient879">
      <stop
         style="stop-opacity:1;stop-color:#858383"
         offset="0"
         id="stop875" />
      <stop
         style="stop-opacity:1;stop-color:#231f20"
         offset="1"
         id="stop877" />
    </linearGradient>
    <clipPath
       clipPathUnits="userSpaceOnUse"
       id="clipPath889">
      <path
         d="m 778.718,533.167 c -11.735,-11.688 -17.601,-25.876 -17.601,-42.56 v 0 -51.269 c 0,-16.595 5.796,-30.758 17.395,-42.492 v 0 c 11.595,-11.736 25.69,-17.601 42.283,-17.601 v 0 c 16.592,0 30.756,5.844 42.491,17.533 v 0 c 11.735,11.688 17.602,25.873 17.602,42.56 v 0 51.269 c 0,16.592 -5.844,30.755 -17.533,42.492 v 0 C 851.667,544.831 837.48,550.7 820.795,550.7 v 0 c -16.317,0 -30.344,-5.845 -42.077,-17.533 M 804.5,424.345 c -4.261,4.212 -6.393,9.296 -6.393,15.25 v 0 51.718 c 0,6.043 2.132,11.151 6.393,15.319 v 0 c 4.263,4.167 9.373,6.252 15.334,6.252 v 0 c 6.049,0 11.159,-2.085 15.331,-6.252 v 0 c 4.172,-4.168 6.257,-9.276 6.257,-15.319 v 0 -51.718 c 0,-5.954 -2.085,-11.038 -6.257,-15.25 v 0 c -4.172,-4.216 -9.282,-6.322 -15.331,-6.322 v 0 c -5.961,0 -11.071,2.106 -15.334,6.322"
         id="path887" />
    </clipPath>
    <linearGradient
       x1="0"
       y1="0"
       x2="1"
       y2="0"
       gradientUnits="userSpaceOnUse"
       gradientTransform="matrix(0,-239.28563,-239.28563,0,821.0022,659.77399)"
       spreadMethod="pad"
       id="linearGradient899">
      <stop
         style="stop-opacity:1;stop-color:#858383"
         offset="0"
         id="stop895" />
      <stop
         style="stop-opacity:1;stop-color:#231f20"
         offset="1"
         id="stop897" />
    </linearGradient>
    <clipPath
       clipPathUnits="userSpaceOnUse"
       id="clipPath909">
      <path
         d="M 0,1080 H 1080 V 0 H 0 Z"
         id="path907" />
    </clipPath>
  </defs>
  <sodipodi:namedview
     id="base"
     pagecolor="#ffffff"
     bordercolor="#666666"
     borderopacity="1.0"
     inkscape:pageopacity="0.0"
     inkscape:pageshadow="2"
     inkscape:zoom="0.35"
     inkscape:cx="357.34281"
     inkscape:cy="1514.7843"
     inkscape:document-units="mm"
     inkscape:current-layer="g841"
     inkscape:document-rotation="0"
     showgrid="false"
     inkscape:window-width="1239"
     inkscape:window-height="1401"
     inkscape:window-x="1311"
     inkscape:window-y="0"
     inkscape:window-maximized="0" />
  <metadata
     id="metadata5">
    <rdf:RDF>
      <cc:Work
         rdf:about="">
        <dc:format>image/svg+xml</dc:format>
        <dc:type
           rdf:resource="http://purl.org/dc/dcmitype/StillImage" />
        <dc:title></dc:title>
      </cc:Work>
    </rdf:RDF>
  </metadata>
  <g
     inkscape:label="Layer 1"
     inkscape:groupmode="layer"
     id="layer1"
     transform="translate(94.897127,252.62001)">
    <g
       id="g841"
       inkscape:label="vector"
       transform="matrix(0.35277777,0,0,-0.35277777,-158.4082,-8.1939431)">
      <g
         id="g843"
         style="fill:#00010d;fill-opacity:1"
         transform="translate(33)">
        <g
           id="g845"
           clip-path="url(#clipPath849)"
           style="fill:#00010d;fill-opacity:1">
          <g
             id="g851"
             style="fill:#00010d;fill-opacity:1">
            <g
               id="g853"
               style="fill:#00010d;fill-opacity:1">
              <path
                 d="m 501.464,382.408 v 250.818 h 107.67 v -37.815 h -69.855 v -44.769 h 75.41 v -37.814 h -75.41 v -92.604 h 69.855 v -37.816 z"
                 style="fill:#00010d;fill-opacity:1;stroke:none"
                 id="path861" />
            </g>
          </g>
        </g>
      </g>
      <g
         id="g863"
         style="fill:#00010d;fill-opacity:1"
         transform="translate(33)">
        <g
           id="g865"
           clip-path="url(#clipPath869)"
           style="fill:#00010d;fill-opacity:1">
          <g
             id="g871"
             style="fill:#00010d;fill-opacity:1">
            <g
               id="g873"
               style="fill:#00010d;fill-opacity:1">
              <path
                 d="M 642.532,618.856 C 630.796,607.168 624.93,593.026 624.93,576.435 v 0 -137.374 c 0,-16.41 5.821,-30.481 17.464,-42.215 v 0 c 11.641,-11.736 25.804,-17.601 42.491,-17.601 v 0 c 16.408,0 30.479,5.797 42.214,17.396 v 0 c 11.735,11.595 17.603,25.735 17.603,42.42 v 0 111.581 h -72.569 v -37.814 h 33.378 v -73.354 c 0,-6.05 -2.131,-11.185 -6.394,-15.401 v 0 c -4.262,-4.218 -9.42,-6.325 -15.47,-6.325 v 0 c -5.96,0 -11.048,2.107 -15.263,6.325 v 0 c -4.219,4.216 -6.326,9.351 -6.326,15.401 v 0 137.648 c 0,6.05 2.107,11.207 6.326,15.469 v 0 c 4.215,4.264 9.303,6.395 15.263,6.395 v 0 c 6.05,0 11.208,-2.131 15.47,-6.395 v 0 c 4.263,-4.262 6.394,-9.419 6.394,-15.469 v 0 -5.303 h 39.191 v 4.616 c 0,16.501 -5.799,30.617 -17.396,42.352 v 0 c -11.598,11.734 -25.738,17.602 -42.421,17.602 v 0 c -16.501,0 -30.62,-5.845 -42.353,-17.533"
                 style="fill:#00010d;fill-opacity:1;stroke:none"
                 id="path881" />
            </g>
          </g>
        </g>
      </g>
      <g
         id="g883"
         style="fill:#00010d;fill-opacity:1"
         transform="translate(33)">
        <g
           id="g885"
           clip-path="url(#clipPath889)"
           style="fill:#00010d;fill-opacity:1">
          <g
             id="g891"
             style="fill:#00010d;fill-opacity:1">
            <g
               id="g893"
               style="fill:#00010d;fill-opacity:1">
              <path
                 d="m 778.718,533.167 c -11.735,-11.688 -17.601,-25.876 -17.601,-42.56 v 0 -51.269 c 0,-16.595 5.796,-30.758 17.395,-42.492 v 0 c 11.595,-11.736 25.69,-17.601 42.283,-17.601 v 0 c 16.592,0 30.756,5.844 42.491,17.533 v 0 c 11.735,11.688 17.602,25.873 17.602,42.56 v 0 51.269 c 0,16.592 -5.844,30.755 -17.533,42.492 v 0 C 851.667,544.831 837.48,550.7 820.795,550.7 v 0 c -16.317,0 -30.344,-5.845 -42.077,-17.533 M 804.5,424.345 c -4.261,4.212 -6.393,9.296 -6.393,15.25 v 0 51.718 c 0,6.043 2.132,11.151 6.393,15.319 v 0 c 4.263,4.167 9.373,6.252 15.334,6.252 v 0 c 6.049,0 11.159,-2.085 15.331,-6.252 v 0 c 4.172,-4.168 6.257,-9.276 6.257,-15.319 v 0 -51.718 c 0,-5.954 -2.085,-11.038 -6.257,-15.25 v 0 c -4.172,-4.216 -9.282,-6.322 -15.331,-6.322 v 0 c -5.961,0 -11.071,2.106 -15.334,6.322"
                 style="fill:#00010d;fill-opacity:1;stroke:none"
                 id="path901" />
            </g>
          </g>
        </g>
      </g>
      <g
         id="g903">
        <g
           id="g905"
           clip-path="url(#clipPath909)">
          <g
             id="g911"
             transform="translate(477.8916,553.1123)">
            <path
               d="M 0,0 C -8.13,9.027 -22.081,9.733 -31.085,1.615 L -37.23,-3.914 V 9.778 c 0,15.576 -3.32,30.39 -9.229,43.802 9.632,7.312 15.396,18.671 15.396,31.108 0,21.564 -17.539,39.114 -39.114,39.114 -12.246,0 -23.471,-5.596 -30.794,-14.982 -16.731,12.156 -6.751,29.213 -6.751,29.213 -19.343,-2.77 -33.372,-17.023 -33.372,-17.023 2.422,7.872 9.072,18.739 9.072,18.739 -19.535,-5.439 -50.654,-24.402 -59.749,-29.998 -7.322,8.814 -18.188,14.051 -30.03,14.051 -21.565,0 -39.115,-17.55 -39.115,-39.114 0,-12.369 5.697,-23.673 15.24,-30.984 -5.954,-13.446 -9.296,-28.293 -9.296,-43.926 v -36.434 l -35.627,-32.106 c -9.016,-8.13 -9.734,-22.08 -1.604,-31.095 4.34,-4.812 10.34,-7.256 16.362,-7.256 5.259,0 10.529,1.861 14.723,5.651 l 6.146,5.529 v -8.904 c 0,-35.155 16.764,-66.442 42.691,-86.358 v -30.637 c 0,-12.145 9.869,-22.024 22.013,-22.024 12.145,0 22.025,9.879 22.025,22.024 v 10.395 c 7.143,-1.48 14.556,-2.265 22.136,-2.265 7.715,0 15.248,0.781 22.506,2.344 4.636,0.998 9.902,2.579 9.902,2.579 4.644,1.445 9.152,3.212 13.51,5.249 l 10.039,-14.682 c 4.245,-6.463 11.32,-9.974 18.529,-9.974 4.167,0.002 8.381,1.175 12.116,3.629 4.941,3.245 8.321,8.22 9.52,14.007 1.199,5.789 0.072,11.697 -3.209,16.692 l -11.433,16.932 c 17.03,19.211 27.397,44.454 27.397,72.089 v 31.635 l 35.626,32.105 C 7.413,-22.967 8.13,-9.016 0,0"
               style="fill:#000000;fill-opacity:1;fill-rule:nonzero;stroke:none"
               id="path913" />
          </g>
          <g
             id="g915"
             transform="translate(418.02,354.6133)">
            <path
               d="M 0,0 C -0.65,-3.151 -2.489,-5.854 -5.169,-7.625 -10.721,-11.27 -18.2,-9.723 -21.89,-4.093 l -9.43,13.782 c 0.583,0.348 1.166,0.684 1.737,1.032 4.979,3.151 9.891,6.863 9.891,6.863 2.68,2.074 5.26,4.295 7.738,6.604 l 1.693,-2.5 L -1.727,9.05 C -0.953,7.884 -0.404,6.616 -0.089,5.293 0.336,3.577 0.37,1.771 0,0"
               style="fill:#8195a6;fill-opacity:1;fill-rule:nonzero;stroke:none"
               id="path917" />
          </g>
          <g
             id="g919"
             transform="translate(430.7603,562.8911)">
            <path
               d="m 0,0 v -104.625 c 0,-34.272 -17.518,-64.542 -44.07,-82.314 -1.597,-1.061 -3.223,-2.079 -4.878,-3.054 -6.871,-4.044 -14.265,-7.267 -22.055,-9.558 -8.866,-2.629 -18.253,-4.043 -27.967,-4.043 -24.615,0 -47.137,9.049 -64.471,23.978 -0.028,0.015 -0.042,0.043 -0.071,0.057 -1.866,1.598 -3.676,3.252 -5.415,4.991 -1.993,1.993 -3.902,4.071 -5.712,6.235 -1.767,2.079 -3.436,4.227 -5.019,6.461 -0.382,0.566 -0.778,1.131 -1.174,1.697 -0.749,1.117 -1.484,2.234 -2.205,3.379 -0.028,0.043 -0.057,0.099 -0.085,0.156 -0.325,0.509 -0.636,1.032 -0.947,1.555 -0.382,0.636 -0.764,1.287 -1.131,1.937 -0.325,0.594 -0.651,1.173 -0.976,1.767 -0.65,1.216 -1.272,2.432 -1.88,3.676 -0.297,0.622 -0.594,1.245 -0.877,1.867 -0.297,0.635 -0.58,1.257 -0.848,1.894 -0.198,0.452 -0.396,0.904 -0.58,1.343 -0.169,0.382 -0.325,0.777 -0.481,1.174 -0.183,0.467 -0.367,0.919 -0.537,1.371 -0.749,1.923 -1.428,3.889 -2.05,5.882 -0.184,0.58 -0.367,1.174 -0.537,1.767 -0.438,1.498 -0.848,3.011 -1.216,4.538 -0.141,0.58 -0.283,1.174 -0.41,1.768 -0.014,0.07 -0.029,0.142 -0.043,0.197 -0.141,0.622 -0.268,1.244 -0.395,1.867 -0.566,2.856 -1.018,5.754 -1.329,8.695 -0.071,0.58 -0.128,1.16 -0.17,1.754 -0.014,0.127 -0.028,0.268 -0.042,0.409 -0.043,0.538 -0.085,1.075 -0.128,1.626 -0.028,0.325 -0.042,0.65 -0.056,0.975 -0.043,0.495 -0.057,1.004 -0.085,1.514 v 0.184 c -0.042,0.678 -0.056,1.371 -0.071,2.049 -0.014,0.736 -0.028,1.471 -0.028,2.206 V 0 c 0,30.553 13.912,57.911 35.728,76.065 0.297,0.269 0.608,0.509 0.905,0.735 0.198,0.184 0.382,0.34 0.579,0.467 0.227,0.212 0.453,0.396 0.693,0.566 h 0.014 c 0.269,0.24 0.552,0.452 0.834,0.65 0.34,0.268 0.707,0.551 1.103,0.862 8.257,6.348 28.32,20.798 58.109,36.011 0,0 -1.724,-9.303 -1.597,-16.415 0.014,-1.046 0.071,-2.05 0.184,-2.969 0,0 1.329,1.188 3.478,2.984 5.5,4.58 16.344,13.19 23.979,16.4 0,0 -0.82,-15.807 22.098,-28.348 0.156,-0.085 0.311,-0.169 0.467,-0.254 C -20.77,69.901 0,37.326 0,0"
               style="fill:#5bd9d9;fill-opacity:1;fill-rule:nonzero;stroke:none"
               id="path921" />
          </g>
          <g
             id="g923"
             transform="translate(436.9351,637.7964)">
            <path
               d="m 0,0 c 0,-4.793 -1.146,-9.374 -3.252,-13.431 -1.683,-3.252 -3.973,-6.165 -6.772,-8.596 -2.729,4.877 -5.826,9.529 -9.247,13.912 2.05,2.135 3.365,4.99 3.521,8.129 0.014,0.213 0.014,0.424 0.014,0.637 0,6.97 -5.656,12.64 -12.64,12.64 -1.442,0 -2.814,-0.241 -4.1,-0.679 -1.697,-0.58 -3.224,-1.513 -4.51,-2.715 -4.397,3.549 -9.092,6.758 -14.012,9.586 0.495,0.552 1.004,1.089 1.527,1.583 5.33,5.175 12.513,8.159 20.246,8.159 C -13.106,29.225 0,16.118 0,0"
               style="fill:#3eb7b3;fill-opacity:1;fill-rule:nonzero;stroke:none"
               id="path925" />
          </g>
          <g
             id="g927"
             transform="translate(226.8745,637.7998)">
            <path
               d="m 0,0 c 0,16.111 13.108,29.22 29.219,29.22 8.456,0 16.257,-3.57 21.71,-9.646 -4.94,-2.834 -9.639,-6.037 -14.056,-9.585 -2.248,2.048 -5.229,3.303 -8.501,3.303 -6.985,0 -12.64,-5.669 -12.64,-12.639 0,-3.337 1.298,-6.37 3.413,-8.631 C 15.713,-12.365 12.607,-17.016 9.87,-21.904 3.66,-16.443 0,-8.562 0,0"
               style="fill:#ffffff;fill-opacity:1;fill-rule:nonzero;stroke:none"
               id="path929" />
          </g>
          <g
             id="g931"
             transform="translate(222.9204,513.1377)">
            <path
               d="m 0,0 v -32.646 l -12.767,-11.495 c -4.962,-4.467 -12.64,-4.072 -17.122,0.891 -1.838,2.05 -2.856,4.553 -3.068,7.111 -0.297,3.634 1.046,7.381 3.959,10.011 l 25.011,22.536 z"
               style="fill:#8195a6;fill-opacity:1;fill-rule:nonzero;stroke:none"
               id="path933" />
          </g>
          <g
             id="g935"
             transform="translate(299.749,354.2207)">
            <path
               d="m 0,0 v -12.951 c 0,-6.673 -5.443,-12.116 -12.117,-12.116 -0.693,0 -1.371,0.056 -2.022,0.17 -0.226,0.042 -0.438,0.084 -0.65,0.126 -0.212,0.042 -0.424,0.099 -0.636,0.17 -0.113,0.029 -0.226,0.057 -0.325,0.099 -0.156,0.042 -0.312,0.085 -0.467,0.142 -1.173,0.423 -2.262,1.032 -3.238,1.781 -0.339,0.255 -0.664,0.537 -0.975,0.82 -0.311,0.297 -0.608,0.608 -0.891,0.933 -1.824,2.106 -2.927,4.864 -2.927,7.875 V 10.9 C -16.712,6.334 -8.582,2.644 0,0"
               style="fill:#8195a6;fill-opacity:1;fill-rule:nonzero;stroke:none"
               id="path937" />
          </g>
          <g
             id="g939"
             transform="translate(469.6655,529.3682)">
            <path
               d="M 0,0 -29.012,-26.128 V 6.519 l 3.153,2.827 9.614,8.653 C -11.283,22.48 -3.591,22.084 0.876,17.122 5.358,12.16 4.963,4.482 0,0"
               style="fill:#8195a6;fill-opacity:1;fill-rule:nonzero;stroke:none"
               id="path941" />
          </g>
          <g
             id="g943"
             transform="translate(359.2344,540.5298)">
            <path
               d="M 0,0 C -0.1,8.718 -12.344,15.769 -27.444,15.769 -42.545,15.769 -54.789,8.718 -54.889,0 -64.161,-2.553 -71,-11.038 -71,-21.11 c 0,-9.014 5.473,-16.768 13.269,-20.13 v -11.029 c 0,-9.715 7.903,-17.618 17.617,-17.618 4.974,0 9.463,2.08 12.67,5.405 3.206,-3.325 7.695,-5.405 12.669,-5.405 9.714,0 17.617,7.903 17.617,17.618 v 11.029 c 7.796,3.362 13.269,11.116 13.269,20.13 C 16.111,-11.038 9.272,-2.553 0,0"
               style="fill:#000000;fill-opacity:1;fill-rule:nonzero;stroke:none"
               id="path945" />
          </g>
          <g
             id="g947"
             transform="translate(319.1206,480.5391)">
            <path
               d="m 0,0 c -4.257,0 -7.721,3.465 -7.721,7.722 v 9.245 H 7.721 V 7.722 C 7.721,3.465 4.257,0 0,0"
               style="fill:#ffffff;fill-opacity:1;fill-rule:nonzero;stroke:none"
               id="path949" />
          </g>
          <g
             id="g951"
             transform="translate(352.1797,488.2607)">
            <path
               d="m 0,0 c 0,-4.257 -3.463,-7.722 -7.721,-7.722 -4.257,0 -7.72,3.465 -7.72,7.722 V 9.245 H 0 Z"
               style="fill:#ffffff;fill-opacity:1;fill-rule:nonzero;stroke:none"
               id="path953" />
          </g>
          <g
             id="g955"
             transform="translate(353.4307,507.4023)">
            <path
               d="m 0,0 h -16.692 -9.897 -16.693 c -6.627,0 -12.017,5.392 -12.017,12.018 0,6.315 4.899,11.497 11.095,11.971 4.957,-4.132 13.208,-6.843 22.563,-6.843 9.355,0 17.606,2.711 22.563,6.843 C 7.118,23.515 12.018,18.333 12.018,12.018 12.018,5.392 6.627,0 0,0"
               style="fill:#8195a6;fill-opacity:1;fill-rule:nonzero;stroke:none"
               id="path957" />
          </g>
          <g
             id="g959"
             transform="translate(304.6113,519.4199)">
            <path
               d="M 0,0 C 0,4.613 2.621,8.613 6.445,10.623 5.799,11.055 5.18,11.501 4.616,11.972 -1.581,11.497 -6.48,6.315 -6.48,0 c 0,-6.626 5.391,-12.018 12.018,-12.018 h 6.48 C 5.391,-12.018 0,-6.626 0,0"
               style="fill:#ffffff;fill-opacity:1;fill-rule:nonzero;stroke:none"
               id="path961" />
          </g>
          <g
             id="g963"
             transform="translate(469.6655,529.3682)">
            <path
               d="M 0,0 -29.012,-26.128 V 6.519 l 3.153,2.827 c 0,0 3.117,-18.327 19.843,-6.79 0,0 10,6.981 6.892,14.566 C 5.358,12.16 4.963,4.482 0,0"
               style="fill:#5d717f;fill-opacity:1;fill-rule:nonzero;stroke:none"
               id="path965" />
          </g>
          <g
             id="g967"
             transform="translate(222.9204,513.1377)">
            <path
               d="m 0,0 v -32.646 l -12.767,-11.495 c -4.962,-4.467 -12.64,-4.072 -17.122,0.891 -1.838,2.05 -2.856,4.553 -3.068,7.111 6.914,-7.507 18.225,4.115 18.225,4.115 11.127,9.02 10.745,28.432 10.745,28.432 z"
               style="fill:#5d717f;fill-opacity:1;fill-rule:nonzero;stroke:none"
               id="path969" />
          </g>
          <g
             id="g971"
             transform="translate(299.749,354.2207)">
            <path
               d="m 0,0 v -12.951 c 0,-6.673 -5.443,-12.116 -12.117,-12.116 -0.693,0 -1.371,0.056 -2.022,0.17 -0.226,0.042 -0.438,0.084 -0.65,0.126 -0.212,0.042 -0.424,0.099 -0.636,0.17 -0.113,0.029 -0.226,0.057 -0.325,0.099 -0.156,0.042 -0.312,0.085 -0.467,0.142 -1.173,0.423 -2.262,1.032 -3.238,1.781 -0.339,0.255 -0.664,0.537 -0.975,0.82 -0.311,0.297 -0.608,0.608 -0.891,0.933 9.756,-2.63 9.204,9.699 9.204,9.699 0,11.749 -12.131,17.673 -12.131,17.673 V 10.9 C -16.712,6.334 -8.582,2.644 0,0"
               style="fill:#5d717f;fill-opacity:1;fill-rule:nonzero;stroke:none"
               id="path973" />
          </g>
          <g
             id="g975"
             transform="translate(330.1958,546.4902)">
            <path
               d="m 0,0 c 0,-2.147 -3.037,-3.888 -6.783,-3.888 -3.747,0 -6.784,1.741 -6.784,3.888 0,2.147 3.037,3.888 6.784,3.888 C -3.037,3.888 0,2.147 0,0"
               style="fill:#ffffff;fill-opacity:1;fill-rule:nonzero;stroke:none"
               id="path977" />
          </g>
          <g
             id="g979"
             transform="translate(430.7603,562.8911)">
            <path
               d="m 0,0 v -104.625 c 0,-34.272 -17.518,-64.542 -44.07,-82.314 -1.597,-1.061 -3.223,-2.079 -4.878,-3.054 -6.871,-4.044 -14.265,-7.267 -22.055,-9.558 53.655,26.128 53.655,89.016 53.655,89.016 v 39.857 c 0,25.916 -23.71,32.645 -23.71,32.645 l -24.248,66.791 c 44.551,7.79 9.897,43.659 9.897,43.659 -23.47,25.619 -18.521,42.939 -18.521,42.939 0,0 -0.82,-15.807 22.098,-28.348 0.156,-0.085 0.311,-0.169 0.467,-0.254 C -20.77,69.901 0,37.326 0,0"
               style="fill:#3eb7b3;fill-opacity:1;fill-rule:nonzero;stroke:none"
               id="path981" />
          </g>
          <g
             id="g983"
             transform="translate(260.6318,454.1094)">
            <path
               d="M 0,0 V 38.394 C 0,66.14 18.436,70.761 18.436,70.761 L 22.501,86.147 0,87.542 v 25.411 c 0,8.467 0.919,16.455 2.55,23.997 l 29.687,1.392 c 0,0 -30.956,8.713 -15.211,34.305 14.546,23.672 35.802,40.561 53.129,51.491 -29.79,-15.213 -49.852,-29.663 -58.109,-36.011 -0.396,-0.311 -0.764,-0.594 -1.103,-0.862 -0.283,-0.199 -0.566,-0.411 -0.834,-0.651 h -0.014 c -0.241,-0.17 -0.467,-0.353 -0.693,-0.565 -0.198,-0.128 -0.382,-0.283 -0.58,-0.467 -0.297,-0.226 -0.608,-0.466 -0.905,-0.735 -21.815,-18.154 -35.728,-45.512 -35.728,-76.065 V 4.157 c 0,-0.735 0.015,-1.47 0.029,-2.206 0.014,-0.679 0.028,-1.371 0.07,-2.05 v -0.183 c 0.028,-0.51 0.043,-1.019 0.085,-1.514 0.014,-0.325 0.028,-0.65 0.057,-0.975 0.042,-0.551 0.085,-1.088 0.127,-1.626 0.014,-0.141 0.028,-0.283 0.042,-0.41 0.043,-0.593 0.099,-1.173 0.17,-1.754 0.311,-2.94 0.763,-5.838 1.329,-8.694 0.127,-0.623 0.255,-1.245 0.396,-1.867 0.014,-0.056 0.028,-0.127 0.042,-0.197 0.128,-0.594 0.269,-1.188 0.41,-1.768 0.368,-1.527 0.778,-3.04 1.216,-4.538 0.17,-0.594 0.354,-1.187 0.538,-1.768 0.622,-1.993 1.3,-3.944 2.05,-5.881 0.169,-0.453 0.353,-0.905 0.537,-1.372 0.155,-0.396 0.311,-0.792 0.481,-1.173 0.183,-0.439 0.381,-0.891 0.579,-1.343 0.269,-0.637 0.551,-1.259 0.848,-1.895 0.284,-0.622 0.58,-1.244 0.877,-1.866 0.608,-1.244 1.23,-2.46 1.881,-3.677 0.325,-0.593 0.65,-1.172 0.975,-1.766 0.368,-0.651 0.749,-1.301 1.131,-1.938 0.311,-0.522 0.622,-1.046 0.947,-1.554 0.029,-0.057 0.057,-0.114 0.085,-0.157 0.721,-1.144 1.456,-2.261 2.206,-3.379 0.396,-0.565 0.792,-1.13 1.173,-1.696 1.598,-2.22 3.266,-4.383 5.02,-6.461 C 9.162,-75.726 27.909,-87.475 49.244,-92.324 19.822,-73.789 0,-39.361 0,0"
               style="fill:#ffffff;fill-opacity:1;fill-rule:nonzero;stroke:none"
               id="path985" />
          </g>
          <g
             id="g987"
             transform="translate(440.5698,595.708)">
            <path
               d="m 0,0 c -32.01,2.793 -61.931,-0.866 -88.662,-6.794 -7.127,-1.581 -12.569,-5.068 -20.274,-5.017 v 0.005 h -0.194 -0.187 v -0.005 c -7.704,-0.051 -13.146,3.436 -20.274,5.017 -26.731,5.928 -56.652,9.587 -88.661,6.794 0.454,-4.084 -0.842,-9.779 0.695,-13.968 1.232,-3.347 4.812,-4.242 6.234,-7.173 2.699,-5.556 3.402,-12.279 5.192,-18.122 1.743,-5.673 3.737,-11.557 6.93,-16.237 10.338,-15.155 46.462,-21.615 63.376,-7.546 2.032,1.687 4.305,4.533 6.414,7.664 0.422,0.626 0.833,1.261 1.238,1.903 3.077,5.289 5.507,10.955 7.2,16.722 0.285,0.866 0.579,1.715 0.891,2.524 0.228,0.612 0.465,1.199 0.715,1.755 0.851,2.413 2.586,3.544 4.315,4.68 5.195,2.638 13.508,1.508 16.287,-4.688 0.246,-0.583 0.446,-1.176 0.593,-1.747 0.311,-0.809 0.606,-1.658 0.895,-2.524 1.695,-5.767 4.12,-11.433 7.195,-16.722 0.408,-0.642 0.816,-1.277 1.236,-1.903 2.112,-3.131 4.387,-5.977 6.418,-7.664 16.916,-14.069 53.037,-7.609 63.377,7.546 3.19,4.68 5.185,10.564 6.929,16.237 1.792,5.843 2.497,12.566 5.191,18.122 1.422,2.931 5.005,3.826 6.236,7.173 C 0.844,-9.779 -0.456,-4.084 0,0"
               style="fill:#000000;fill-opacity:1;fill-rule:nonzero;stroke:none"
               id="path989" />
          </g>
          <g
             id="g991"
             transform="translate(350.9424,574.2651)">
            <path
               d="m 0,0 c 2.424,6.442 11.241,8.798 18.735,10.622 8.377,2.042 18.377,2.791 26.491,2.657 6.51,-0.108 12.628,-0.093 17.243,-1.283 -2.403,0.081 -4.926,0.106 -7.508,0.148 C 46.429,12.285 35.913,11.497 27.104,9.351 19.225,7.433 9.954,4.956 7.405,-1.819 c -1.713,-4.571 -0.173,-11 0.678,-14.659 2.101,-8.994 5.948,-17.583 12.558,-22.292 -2.339,0.636 -4.511,1.492 -6.43,2.587 C 6.919,-32.024 2.81,-23.207 0.645,-13.94 -0.164,-10.461 -1.629,-4.347 0,0"
               style="fill:#ffffff;fill-opacity:1;fill-rule:nonzero;stroke:none"
               id="path993" />
          </g>
          <g
             id="g995"
             transform="translate(249.0537,577.4565)">
            <path
               d="M 0,0 C 3.895,5.564 13.971,5.401 25.139,5.585 33.671,5.727 44.186,4.939 52.995,2.792 55.054,2.291 57.208,1.75 59.313,1.106 55.42,4.208 49.436,5.773 44.116,7.068 35.739,9.109 25.738,9.858 17.624,9.724 7.004,9.549 -2.579,9.704 -6.283,4.413 -12.65,-4.691 -5.469,-26.691 -0.465,-32.772 0.878,-34.404 2.668,-35.888 4.784,-37.2 -0.289,-28.995 -6.146,-8.787 0,0"
               style="fill:#ffffff;fill-opacity:1;fill-rule:nonzero;stroke:none"
               id="path997" />
          </g>
          <g
             id="g999"
             transform="translate(418.02,354.6133)">
            <path
               d="M 0,0 C -0.65,-3.151 -2.489,-5.854 -5.169,-7.625 -10.721,-11.27 -18.2,-9.723 -21.89,-4.093 l -9.43,13.782 c 0.583,0.348 1.166,0.684 1.737,1.032 4.979,3.151 9.891,6.863 9.891,6.863 2.68,2.074 5.26,4.295 7.738,6.604 l 1.693,-2.5 c 0,0 -9.307,-8.321 -4.071,-19.714 0,0 3.556,-7.2 10.463,-4.486 0,0 3.723,2.445 3.78,7.805 C 0.336,3.577 0.37,1.771 0,0"
               style="fill:#5d717f;fill-opacity:1;fill-rule:nonzero;stroke:none"
               id="path1001" />
          </g>
        </g>
      </g>
    </g>
  </g>
</svg>
